<svg width="308" height="208" viewBox="0 0 308 208" fill="none" xmlns="http://www.w3.org/2000/svg">
<g filter="url(#filter0_d_3093_924)">
<path d="M304 100C304 155.228 259.228 200 204 200C148.772 200 104 155.228 104 100C104 44.7715 148.772 0 204 0C259.228 0 304 44.7715 304 100ZM146.099 100C146.099 131.978 172.022 157.901 204 157.901C235.978 157.901 261.901 131.978 261.901 100C261.901 68.0219 235.978 42.0986 204 42.0986C172.022 42.0986 146.099 68.0219 146.099 100Z" fill="url(#paint0_linear_3093_924)"/>
</g>
<g filter="url(#filter1_d_3093_924)">
<path d="M204 100C204 155.228 159.228 200 104 200C48.7715 200 4 155.228 4 100C4 44.7715 48.7715 0 104 0C159.228 0 204 44.7715 204 100ZM46.0986 100C46.0986 131.978 72.0219 157.901 104 157.901C135.978 157.901 161.901 131.978 161.901 100C161.901 68.0219 135.978 42.0986 104 42.0986C72.0219 42.0986 46.0986 68.0219 46.0986 100Z" fill="url(#paint1_linear_3093_924)"/>
</g>
<defs>
<filter id="filter0_d_3093_924" x="100" y="0" width="208" height="208" filterUnits="userSpaceOnUse" color-interpolation-filters="sRGB">
<feFlood flood-opacity="0" result="BackgroundImageFix"/>
<feColorMatrix in="SourceAlpha" type="matrix" values="0 0 0 0 0 0 0 0 0 0 0 0 0 0 0 0 0 0 127 0" result="hardAlpha"/>
<feOffset dy="4"/>
<feGaussianBlur stdDeviation="2"/>
<feComposite in2="hardAlpha" operator="out"/>
<feColorMatrix type="matrix" values="0 0 0 0 0 0 0 0 0 0 0 0 0 0 0 0 0 0 0.25 0"/>
<feBlend mode="normal" in2="BackgroundImageFix" result="effect1_dropShadow_3093_924"/>
<feBlend mode="normal" in="SourceGraphic" in2="effect1_dropShadow_3093_924" result="shape"/>
</filter>
<filter id="filter1_d_3093_924" x="0" y="0" width="208" height="208" filterUnits="userSpaceOnUse" color-interpolation-filters="sRGB">
<feFlood flood-opacity="0" result="BackgroundImageFix"/>
<feColorMatrix in="SourceAlpha" type="matrix" values="0 0 0 0 0 0 0 0 0 0 0 0 0 0 0 0 0 0 127 0" result="hardAlpha"/>
<feOffset dy="4"/>
<feGaussianBlur stdDeviation="2"/>
<feComposite in2="hardAlpha" operator="out"/>
<feColorMatrix type="matrix" values="0 0 0 0 0 0 0 0 0 0 0 0 0 0 0 0 0 0 0.25 0"/>
<feBlend mode="normal" in2="BackgroundImageFix" result="effect1_dropShadow_3093_924"/>
<feBlend mode="normal" in="SourceGraphic" in2="effect1_dropShadow_3093_924" result="shape"/>
</filter>
<linearGradient id="paint0_linear_3093_924" x1="204.84" y1="199.996" x2="203.16" y2="0.00351773" gradientUnits="userSpaceOnUse">
<stop stop-color="#7694FF"/>
<stop offset="1" stop-color="#B5C2F2"/>
</linearGradient>
<linearGradient id="paint1_linear_3093_924" x1="101.83" y1="0.0235371" x2="106.17" y2="199.976" gradientUnits="userSpaceOnUse">
<stop stop-color="#5972FF"/>
<stop offset="0.62" stop-color="#627BD4"/>
<stop offset="0.755" stop-color="#596FBF"/>
<stop offset="0.84" stop-color="#5367B2"/>
<stop offset="0.9" stop-color="#4E62A8"/>
<stop offset="1" stop-color="#475999"/>
</linearGradient>
</defs>
</svg>
